# xmcd
#
# Track frame offsets:
#	150
#	11587
#	22572
#	34977
#	47335
#	58620
#	69247
#	80385
#	92270
#	105242
#	118990
#	129577
#	142285
#	156715
#
# Disc length: 2341 seconds
#
# Revision: 5
# Processed by: cddbd v1.5.1PL0 Copyright (c) Steve Scherf et al.
# Submitted via: audiograbber 1.83.01
#
DISCID=af09230e
DTITLE=Various Artist - Blues History Part 2 [4 of 4]
DYEAR=1989
DGENRE=Blues
TTITLE0=Sonny Boy Williamson - Bring It On Home
TTITLE1=John Lee Hooker - Please Don't Go
TTITLE2=Little Walter - Shake Dancer
TTITLE3=Memphis Slim - Blues For My Baby
TTITLE4=Muddy Waters - Crawlin' Kingsnake
TTITLE5=Big Bill Broonzy and Washboard Sam - Bright Eyes
TTITLE6=Buddy Guy - Watch Yourself
TTITLE7=Koko Taylor - I'm A Little Mixed Up
TTITLE8=Howlin' Wolf - Baby, How Long
TTITLE9=J.B. Lenoir - Sittin' Down Thinking
TTITLE10=Little Milton - Ain't No Big Deal On You
TTITLE11=Lowell Fulson - It's A Long Time
TTITLE12=Etta James - Leave Your Hat On
TTITLE13=Muddy Waters - Got My Mojo Working
EXTD=
EXTT0=
EXTT1=
EXTT2=
EXTT3=
EXTT4=
EXTT5=
EXTT6=
EXTT7=
EXTT8=
EXTT9=
EXTT10=
EXTT11=
EXTT12=
EXTT13=
PLAYORDER=
